Coordinates
version=1
nRows=9
nColumns=24
inDegrees=yes

Units are S.I. units (second, meters, Newtons, ...)
Angles are in degrees.

endheader
time	pelvis_tilt	pelvis_list	pelvis_rotation	pelvis_tx	pelvis_ty	pelvis_tz	hip_flexion_r	hip_adduction_r	hip_rotation_r	knee_angle_r	ankle_angle_r	subtalar_angle_r	mtp_angle_r	hip_flexion_l	hip_adduction_l	hip_rotation_l	knee_angle_l	ankle_angle_l	subtalar_angle_l	mtp_angle_l	lumbar_extension	lumbar_bending	lumbar_rotation
      1.11683333	     -0.31640118	      3.60785128	     -0.65090830	      0.48640518	      1.02198673	      0.30528023	      9.53141364	      0.83082991	     -3.96287317	    -15.72496138	      6.20957364	     -5.03442629	     10.40962849	     13.84386473	      2.37086600	     -5.07979198	    -62.20667447	      4.51888034	     -8.81982082	      6.02618769	     -1.23506309	     -2.99199813	      6.88107855
      1.12100000	     -0.29075309	      3.65221941	     -1.00382276	      0.49097133	      1.02231815	      0.30593030	      9.16204503	      0.83017795	     -3.76303267	    -15.53909618	      6.28038833	     -4.85213045	     10.45928405	     14.29780734	      2.35253251	     -5.38254102	    -61.82319276	      4.66755523	     -8.82665720	      6.02646331	     -1.25456627	     -3.02099534	      6.99043856
      1.12516667	     -0.23569640	      3.69544244	     -1.34753925	      0.49553379	      1.02265431	      0.30657764	      8.76568292	      0.82336903	     -3.59346266	    -15.36929564	      6.42867678	     -4.65643007	     10.58887717	     14.70846187	      2.32396701	     -5.68521300	    -61.40525975	      4.82061640	     -8.78312299	      6.02347976	     -1.29770096	     -3.07440092	      7.39887163
      1.12933333	     -0.18594976	      3.73401141	     -1.68664136	      0.50006622	      1.02296146	      0.30720632	      8.37698123	      0.81888020	     -3.40266764	    -15.20012042	      6.54342070	     -4.48460609	     10.71809386	     15.11959486	      2.29153104	     -5.97963750	    -60.96078706	      4.93657056	     -8.81841055	      6.01571775	     -1.34633497	     -3.10805941	      7.63507089
      1.13350000	     -0.16453482	      3.75492862	     -2.00500347	      0.50458624	      1.02320746	      0.30779862	      8.01178514	      0.83020031	     -3.21133017	    -15.01606522	      6.62258573	     -4.32384365	     10.76022480	     15.55988701	      2.24027101	     -6.25171544	    -60.50228002	      5.04188179	     -8.88572833	      6.01182623	     -1.36822633	     -3.11844316	      7.69754572
      1.13766667	     -0.10799200	      3.79638503	     -2.33856905	      0.50909426	      1.02345913	      0.30840819	      7.62939097	      0.81241486	     -3.02780894	    -14.87668120	      6.78212938	     -4.15475544	     10.88673583	     15.94287672	      2.20360198	     -6.54695720	    -59.99369146	      5.11685597	     -8.96617354	      5.99710134	     -1.42078139	     -3.16536484	      8.05951397
      1.14183333	     -0.08220292	      3.81336628	     -2.65659491	      0.51358642	      1.02363646	      0.30899750	      7.27661826	      0.82016904	     -2.83769414	    -14.72990518	      6.88819691	     -4.00988673	     10.95456163	     16.35888860	      2.13220335	     -6.83738140	    -59.47920242	      5.18762346	     -9.07093310	      5.98662134	     -1.43939582	     -3.17271607	      8.16815384
      1.14600000	     -0.03363387	      3.84082682	     -2.97009347	      0.51806434	      1.02383535	      0.30956025	      6.90126622	      0.80949918	     -2.64948739	    -14.58738895	      7.02555182	     -3.86006389	     11.03462443	     16.73678829	      2.08171185	     -7.10679942	    -58.92112836	      5.23142936	     -9.19697902	      5.97147678	     -1.48881463	     -3.19681184	      8.36352531
      1.15016667	      0.02715066	      3.86684466	     -3.26413106	      0.52252489	      1.02403122	      0.31009324	      6.50474765	      0.79491836	     -2.46387073	    -14.43034356	      7.17457017	     -3.69647817	     11.14637199	     17.09342258	      2.03795487	     -7.34637317	    -58.33505589	      5.26164035	     -9.34645776	      5.94797214	     -1.57041412	     -3.23295655	      8.61362141
